PathFileType	4	(X/Y/Z)	C:\Users\86182\Documents\cortex\Trimmed_M1_L7.trc
DataRate	CameraRate	NumFrames	NumMarkers	Units	OrigDataRate	OrigDataStartFrame	OrigNumFrames
100.00	100.00	       140	2	mm	100.00	541	       901
Frame#	Time	gripper			box			
		X1	Y1	Z1	X2	Y2	Z2	

541	5.400	198.58434	194.99638	293.08228	200.22867	194.01321	155.80684	
542	5.410	198.56979	194.99773	293.08478	200.22867	194.01321	155.80684	
543	5.420	198.58887	194.99498	293.08356	200.22867	194.01321	155.80684	
544	5.430	198.60481	195.00143	293.06912	200.22867	194.01321	155.80684	
545	5.440	198.59373	194.98854	293.09137	200.22867	194.01321	155.80684	
546	5.450	198.61302	194.98764	293.08197	200.22867	194.01321	155.80684	
547	5.460	198.60254	195.00099	293.07028	200.22867	194.01321	155.80684	
548	5.470	198.62402	194.99734	293.06934	200.22867	194.01321	155.80684	
549	5.480	198.61328	194.99974	293.06897	200.22867	194.01321	155.80684	
550	5.490	198.63829	194.99960	293.06189	200.22867	194.01321	155.80684	
551	5.500	198.63116	194.99965	293.06390	200.22867	194.01321	155.80684	
552	5.510	198.54535	195.01186	293.07108	200.22867	194.01321	155.80684	
553	5.520	198.59544	195.00574	293.06543	200.22867	194.01321	155.80684	
554	5.530	198.59880	194.99393	293.08170	200.22867	194.01321	155.80684	
555	5.540	198.54869	195.00835	293.07523	200.22867	194.01321	155.80684	
556	5.550	198.55225	195.00716	293.07593	200.22867	194.01321	155.80684	
557	5.560	198.56880	194.99884	293.08206	200.22867	194.01321	155.80684	
558	5.570	198.56645	195.00240	293.07874	200.22867	194.01321	155.80684	
559	5.580	198.58078	194.99878	293.07983	200.22867	194.01321	155.80684	
560	5.590	198.57004	195.00119	293.07947	200.22867	194.01321	155.80684	
561	5.600	198.58449	194.99992	293.07709	200.22867	194.01321	155.80684	
562	5.610	198.58104	195.00465	293.07120	200.22867	194.01321	155.80684	
563	5.620	198.57591	195.00166	293.07739	200.22867	194.01321	155.80684	
564	5.630	198.60979	195.00682	293.05966	200.22867	194.01321	155.80684	
565	5.640	198.59885	194.99631	293.07819	200.22867	194.01321	155.80684	
566	5.650	198.59161	194.99753	293.07852	200.22867	194.01321	155.80684	
567	5.660	198.62802	194.99161	293.06979	200.22867	194.01321	155.80684	
568	5.670	198.63533	194.98199	293.07764	200.22867	194.01321	155.80684	
569	5.680	198.59886	194.99748	293.07648	200.22867	194.01321	155.80684	
570	5.690	198.62769	194.99138	293.07700	200.22867	194.01321	155.80684	
571	5.700	198.62399	194.99852	293.06763	200.22867	194.01321	155.80684	
572	5.710	198.60358	194.98874	293.08789	200.22867	194.01321	155.80684	
573	5.720	198.56776	194.99995	293.07932	200.22867	194.01321	155.80684	
574	5.730	198.56290	195.00357	293.07803	200.22867	194.01321	155.80684	
575	5.740	198.57944	194.99568	293.08490	200.22867	194.01321	155.80684	
576	5.750	198.57732	195.00232	293.07568	200.22867	194.01321	155.80684	
577	5.760	198.58290	194.99338	293.08752	200.22867	194.01321	155.80684	
578	5.770	198.57004	195.00119	293.07947	200.22867	194.01321	155.80684	
579	5.780	198.55984	195.00899	293.06970	200.22867	194.01321	155.80684	
580	5.790	198.57289	195.00261	293.07263	200.22867	194.01321	155.80684	
581	5.800	198.53810	195.01190	293.07312	200.22867	194.01321	155.80684	
582	5.810	198.57716	194.99879	293.08087	200.22867	194.01321	155.80684	
583	5.820	198.60245	194.98991	293.08511	200.22867	194.01321	155.80684	
584	5.830	198.60999	194.99728	293.06949	200.22867	194.01321	155.80684	
585	5.840	198.56439	195.00906	293.06973	200.22867	194.01321	155.80684	
586	5.850	198.61740	194.98323	293.07706	200.22867	194.01321	155.80684	
587	5.860	198.60287	194.99571	293.07248	200.22867	194.01321	155.80684	
588	5.870	198.62563	194.98407	293.07751	200.22867	194.01321	155.80684	
589	5.880	198.62442	194.99559	293.06641	200.22867	194.01321	155.80684	
590	5.890	198.66106	194.99190	293.06253	200.22867	194.01321	155.80684	
591	5.900	198.59410	194.99191	293.08206	200.22867	194.01321	155.80684	
592	5.910	198.57236	195.00043	293.08005	200.22867	194.01321	155.80684	
593	5.920	198.58488	194.99977	293.07315	200.22867	194.01321	155.80684	
594	5.930	198.58495	194.99934	293.07242	200.22867	194.01321	155.80684	
595	5.940	198.57399	195.00819	293.06808	200.22867	194.01321	155.80684	
596	5.950	198.57776	195.01167	293.06192	200.22867	194.01321	155.80684	
597	5.960	198.58472	195.00580	293.06845	200.22867	194.01321	155.80684	
598	5.970	198.55983	195.01178	293.06699	200.22867	194.01321	155.80684	
599	5.980	198.55975	195.01060	293.06870	200.22867	194.01321	155.80684	
600	5.990	198.58833	195.00696	293.06573	200.22867	194.01321	155.80684	
601	6.000	198.60980	195.00566	293.06137	200.22867	194.01321	155.80684	
602	6.010	198.63478	194.99492	293.06979	200.22867	194.01321	155.80684	
603	6.020	198.62793	194.99202	293.07053	200.22867	194.01321	155.80684	
604	6.030	198.63254	194.98894	293.07651	200.22867	194.01321	155.80684	
605	6.040	198.63837	194.99490	293.06879	200.22867	194.01321	155.80684	
606	6.050	198.65953	194.99832	293.05759	200.22867	194.01321	155.80684	
607	6.060	198.65985	194.99699	293.05539	200.22867	194.01321	155.80684	
608	6.070	198.62772	194.99925	293.06418	200.22867	194.01321	155.80684	
609	6.080	198.64560	194.99127	293.07193	200.22867	194.01321	155.80684	
610	6.090	198.55983	195.01178	293.06699	200.22867	194.01321	155.80684	
611	6.100	198.57410	195.00937	293.06638	200.22867	194.01321	155.80684	
612	6.110	198.54517	195.00954	293.07452	200.22867	194.01321	155.80684	
613	6.120	198.60626	195.00685	293.06067	200.22867	194.01321	155.80684	
614	6.130	198.57753	195.00702	293.06879	200.22867	194.01321	155.80684	
615	6.140	198.55957	195.00829	293.07217	200.22867	194.01321	155.80684	
616	6.150	198.57724	194.99995	293.07913	200.22867	194.01321	155.80684	
617	6.160	198.54626	195.00922	293.07495	200.22867	194.01321	155.80684	
618	6.170	198.57001	195.00243	293.07785	200.22266	194.00978	155.80208	
619	6.180	198.57030	195.00589	293.07254	200.22867	194.01321	155.80684	
620	6.190	198.58472	195.00580	293.06845	200.22867	194.01321	155.80684	
621	6.200	198.56665	195.00591	293.07358	200.22867	194.01321	155.80684	
622	6.210	198.53810	195.01190	293.07312	200.22867	194.01321	155.80684	
623	6.220	198.55261	195.01183	293.06903	200.22867	194.01321	155.80684	
624	6.230	198.56682	195.00824	293.07013	200.22867	194.01321	155.80684	
625	6.240	198.62399	194.99852	293.06763	200.22867	194.01321	155.80684	
626	6.250	198.58940	195.00542	293.06775	200.22867	194.01321	155.80684	
627	6.260	198.60611	195.00215	293.06754	200.22867	194.01321	155.80684	
628	6.270	198.59534	195.00104	293.07233	200.22867	194.01321	155.80684	
629	6.280	198.57729	195.00114	293.07742	200.22867	194.01321	155.80684	
630	6.290	198.57751	195.00584	293.07050	200.22867	194.01321	155.80684	
631	6.300	198.55957	195.00829	293.07217	200.22867	194.01321	155.80684	
632	6.310	198.58463	195.00345	293.07187	200.22665	194.01207	155.80525	
633	6.320	198.53810	195.01190	293.07312	200.22867	194.01321	155.80684	
634	6.330	198.57419	195.01169	293.06293	200.22867	194.01321	155.80684	
635	6.340	198.52095	195.00943	293.08228	200.22867	194.01321	155.80684	
636	6.350	198.54869	195.00835	293.07523	200.22867	194.01321	155.80684	
637	6.360	198.54163	195.01071	293.07382	200.22665	194.01207	155.80525	
638	6.370	198.55225	195.00716	293.07593	200.22867	194.01321	155.80684	
639	6.380	198.53810	195.01190	293.07312	200.22867	194.01321	155.80684	
640	6.390	198.55251	195.01065	293.07074	200.22867	194.01321	155.80684	
641	6.400	198.58096	195.00230	293.07465	200.22867	194.01321	155.80684	
642	6.410	198.57057	195.01054	293.06564	200.22466	194.01093	155.80367	
643	6.420	198.60617	195.00333	293.06580	200.22867	194.01321	155.80684	
644	6.430	198.64560	194.99635	293.06183	200.22867	194.01321	155.80684	
645	6.440	198.59895	195.00220	293.06955	200.22867	194.01321	155.80684	
646	6.450	198.59538	195.00223	293.07056	200.22867	194.01321	155.80684	
647	6.460	198.58861	194.99773	293.07239	200.22867	194.01321	155.80684	
648	6.470	198.57019	195.00471	293.07425	200.22867	194.01321	155.80684	
649	6.480	198.58449	194.99992	293.07709	200.22867	194.01321	155.80684	
650	6.490	198.57962	195.00040	293.07797	200.22867	194.01321	155.80684	
651	6.500	198.55157	194.99808	293.09027	200.22867	194.01321	155.80684	
652	6.510	198.55225	195.00716	293.07593	200.22867	194.01321	155.80684	
653	6.520	198.53564	195.01155	293.07443	200.22867	194.01321	155.80684	
654	6.530	198.55931	195.00478	293.07733	200.22867	194.01321	155.80684	
655	6.540	198.55217	195.00722	293.07608	200.22867	194.01321	155.80684	
656	6.550	198.53178	195.00929	293.07904	200.22867	194.01321	155.80684	
657	6.560	198.55820	195.00639	293.07547	200.22867	194.01321	155.80684	
658	6.570	198.53320	195.01118	293.07574	200.22867	194.01321	155.80684	
659	6.580	198.53400	195.00623	293.08307	200.22867	194.01321	155.80684	
660	6.590	198.53728	195.00160	293.08905	200.22867	194.01321	155.80684	
661	6.600	198.55672	194.99782	293.08609	200.22867	194.01321	155.80684	
662	6.610	198.54271	195.00919	293.07587	200.22867	194.01321	155.80684	
663	6.620	198.57968	195.00273	293.07452	200.22867	194.01321	155.80684	
664	6.630	198.59041	194.99915	293.07666	200.22867	194.01321	155.80684	
665	6.640	198.58536	194.99919	293.06851	200.22867	194.01321	155.80684	
666	6.650	198.58038	194.99429	293.08719	200.22867	194.01321	155.80684	
667	6.660	198.61717	195.00237	293.06131	200.22867	194.01321	155.80684	
668	6.670	198.55687	195.00566	293.07709	200.22867	194.01321	155.80684	
669	6.680	198.61325	194.99858	293.07068	200.22867	194.01321	155.80684	
670	6.690	198.55225	195.00716	293.07593	200.22867	194.01321	155.80684	
671	6.700	198.58138	195.01166	293.06088	200.22867	194.01321	155.80684	
672	6.710	198.53810	195.01190	293.07312	200.22867	194.01321	155.80684	
673	6.720	198.54869	195.00835	293.07523	200.22867	194.01321	155.80684	
674	6.730	198.55931	195.00478	293.07733	200.22867	194.01321	155.80684	
675	6.740	198.53810	195.01190	293.07312	200.22867	194.01321	155.80684	
676	6.750	198.53810	195.01190	293.07312	200.22867	194.01321	155.80684	
677	6.760	198.57753	195.00702	293.06879	200.22867	194.01321	155.80684	
678	6.770	198.52272	194.99950	293.09683	200.22867	194.01321	155.80684	
679	6.780	198.55579	195.00598	293.07663	200.22867	194.01321	155.80684	
680	6.790	198.55443	195.00406	293.07996	200.22867	194.01321	155.80684	
